<svg xmlns="http://www.w3.org/2000/svg" viewBox="0 0 2148 346">
  <path fill="#000000" fill-rule="evenodd" d="M126.953 229.803l5.454 41.903c-19.089 6.117-29.996 7.34-44.54 7.34-35.45 0-59.083-26.303-59.083-66.371v-44.044H0v-42.515h28.784V75.65H77.87v50.466h49.993v42.515H77.869v42.515c0 14.987 8.483 22.328 23.027 22.328 6.969 0 15.15-1.53 26.057-3.67zm127.76-108.274c37.269 0 62.72 25.998 62.72 68.206v84.724h-49.387v-76.771c0-21.105-10.605-31.198-26.664-31.198-9.09 0-18.785 5.2-27.269 14.987v92.982H165.03V57.298h49.084v78.912c11.817-9.482 24.845-14.681 40.6-14.681zm127.459-18.658c-16.059 0-28.784-11.928-28.784-27.833 0-16.21 12.725-28.14 28.784-28.14 15.755 0 28.784 11.93 28.784 28.14 0 15.905-13.029 27.833-28.784 27.833zm24.845 23.245V274.46h-49.084V126.116h49.084zm132.003-4.587c37.268 0 62.719 25.998 62.719 68.206v84.724h-49.387v-76.771c0-21.105-10.605-31.198-26.664-31.198-9.09 0-18.785 5.2-27.269 14.987v92.982h-49.084V126.116h49.084v10.094c11.817-9.482 24.845-14.681 40.6-14.681zm255.32 4.587v145.896c0 46.49-32.723 73.406-78.778 73.406-44.54 0-76.96-25.692-79.383-64.23h48.478c2.424 13.764 12.726 22.328 30.905 22.328 16.665 0 29.693-10.4 29.693-30.586v-14.07c-10.907 6.423-23.936 10.4-39.994 10.4-39.692 0-73.021-32.116-73.021-72.184 0-45.267 33.329-76.16 73.02-76.16 16.06 0 29.088 4.283 39.995 11.012v-5.812h49.085zm-79.384 103.687c10.605 0 21.21-3.364 30.3-13.764v-40.985c-9.09-10.4-19.695-13.764-30.3-13.764-19.997 0-34.54 14.376-34.54 35.786 0 16.21 14.543 32.727 34.54 32.727zm109.279-6.423l43.63.306c2.121 12.846 12.726 18.657 28.179 18.657 13.028 0 20.906-3.976 20.906-10.399 0-4.894-4.545-8.87-14.24-10.399l-29.694-5.2c-25.45-4.282-43.024-18.657-43.024-44.655 0-31.198 26.36-49.55 65.446-49.55 31.208 0 66.658 12.235 68.778 51.385h-43.63c-.91-11.317-11.21-16.517-24.845-16.517-12.726 0-18.483 4.894-18.483 10.706 0 4.893 3.636 9.481 15.15 11.622l27.572 4.588c27.572 5.2 45.751 18.658 45.751 44.962 0 34.256-30.602 50.16-68.778 50.16-38.48 0-69.688-16.21-72.718-55.666zm446.677-95.491h109.344v11.58c-13.625 3.693-25.718 10.238-36.277 19.637-10.05 9.063-20.609 26.77-31.68 53.119-9.197 21.65-17.627 37.427-25.292 47.329 18.225 25.846 32.531 42.126 42.92 48.84 10.56 6.88 21.63 10.321 33.212 10.321 16.01 0 28.358-7.468 37.044-22.406h11.752c-3.576 13.763-11.24 24.924-22.993 33.483-11.581 8.392-25.036 12.588-40.365 12.588-33.212 0-62.421-16.448-87.628-49.343-29.806 32.895-61.485 49.343-95.037 49.343-12.093.168-24.015-2.014-35.767-6.546-11.752-4.531-22.226-10.95-31.423-19.259-9.198-8.307-16.606-18.21-22.227-29.706-5.62-11.497-8.26-24.126-7.92-37.888 0-20.98 5.791-38.686 17.373-53.12 11.581-14.266 33.978-32.391 67.19-54.378-19.927-27.357-29.89-52.112-29.89-74.266 0-17.287 6.812-32.811 20.437-46.574C1157.141 6.881 1174.257 0 1195.036 0c18.565 0 35.17 5.119 49.818 15.357 14.818 10.405 22.226 23.832 22.226 40.28 0 25.846-24.525 50.937-73.577 75.273a4742.436 4742.436 0 0 1 44.325 59.665 5133.137 5133.137 0 0 1 41.515 57.65c9.708-13.259 17.373-27.105 22.993-41.538 5.62-14.266 8.43-25.511 8.43-33.735 0-19.3-13.284-30.462-39.854-33.483v-11.58zm-84.305-6.25c34.27-19.838 51.404-41.286 51.404-64.344 0-6.782-.985-13.013-2.956-18.693-1.97-5.68-4.797-10.554-8.481-14.623-3.684-4.07-8.096-7.206-13.237-9.41-5.14-2.204-10.794-3.306-16.963-3.306-12.508 0-22.446 4.069-29.814 12.207-7.368 7.969-11.052 18.057-11.052 30.264 0 16.616 10.367 39.25 31.1 67.904zm-27.07 29.282c-17.592 10.846-31.21 23.36-40.851 37.543-9.642 14.35-14.463 28.115-14.463 41.297 0 20.69 8.373 40.129 25.12 58.316 16.746 18.187 35.692 27.281 56.837 27.281 23.343 0 45.08-11.43 65.21-34.289-17.931-26.864-34.508-51.1-49.732-72.707-15.225-21.608-29.265-40.755-42.12-57.44zm582.658-25.722c18.785 0 33.935 6.321 45.448 18.963 11.514 12.643 17.27 29.465 17.27 50.467v79.83h-34.843V196.77c0-12.642-3.13-22.378-9.393-29.21-6.262-6.83-14.846-10.246-25.754-10.246-13.332 0-25.653 6.933-36.965 20.799v96.346h-35.147V57.298h35.147v84.417c13.13-11.01 27.875-16.516 44.237-16.516zm-122.307 117.45l4.848 30.28c-13.332 4.079-25.25 6.118-35.753 6.118-17.17 0-30.703-5.404-40.601-16.21-9.898-10.808-14.847-25.49-14.847-44.045v-59.337h-32.723v-29.668h32.723V76.873h34.844v52.914h53.024v29.668h-53.024v59.337c0 18.352 9.09 27.528 27.27 27.528 7.473 0 15.553-1.224 24.239-3.67zm523.264 0l4.848 30.28c-13.332 4.079-25.25 6.118-35.753 6.118-17.17 0-30.703-5.404-40.6-16.21-9.898-10.808-14.847-25.49-14.847-44.045v-59.337h-32.723v-29.668h32.723V76.873h34.844v52.914h53.023v29.668h-53.023v59.337c0 18.352 9.09 27.528 27.269 27.528 7.474 0 15.553-1.224 24.24-3.67zm-184.117-112.862h34.844v144.672h-34.844v-10.094c-12.322 8.972-26.966 13.458-43.934 13.458-19.997 0-37.015-7.34-51.054-22.022-14.038-14.681-21.057-32.523-21.057-53.525 0-21.003 7.019-38.895 21.057-53.679 14.04-14.783 31.057-22.175 51.054-22.175 16.968 0 31.612 4.486 43.934 13.458v-10.093zm-38.783 117.45c16.766 0 29.693-6.83 38.783-20.492V177.5c-9.09-13.662-22.017-20.493-38.783-20.493-12.12 0-22.219 4.486-30.299 13.458-8.08 8.972-12.12 19.575-12.12 31.81 0 12.234 4.04 22.786 12.12 31.656 8.08 8.87 18.18 13.305 30.3 13.305z"/>
</svg>