<svg width="341" height="180" xmlns="http://www.w3.org/2000/svg" xmlns:xlink="http://www.w3.org/1999/xlink"><defs><path id="a" d="M0 53.557h205V.042H0z"/></defs><g fill="none" fill-rule="evenodd"><path fill="#000" opacity="0" fill-rule="nonzero" d="M0 0h341v180H0z"/><g transform="translate(67 63.418)"><path fill="#FFF" d="M23.27.041l-9.802 5.637v7.831l9.801-5.636 16.458 9.464v18.928l-16.458 9.46-16.46-9.46V9.504L0 13.422v26.756l23.27 13.379 23.27-13.379V13.422z"/><path d="M33.07 26.799c0 5.392-4.39 9.76-9.802 9.76-5.414 0-9.803-4.368-9.803-9.76 0-5.392 4.39-9.76 9.803-9.76 5.412 0 9.801 4.368 9.801 9.76" fill="#FFF"/><mask id="b" fill="#fff"><use xlink:href="#a"/></mask><path fill="#FFF" mask="url(#b)" d="M198.65 44.1H205V.043h-6.35zM141.469 44.1h6.35V16.433h11.845v-6.196H141.47zM83.134 15.658c6.012 0 10.906 5.186 10.906 11.557 0 6.41-4.734 11.431-10.777 11.431-6.087 0-11.037-5.128-11.037-11.43 0-6.372 4.893-11.558 10.908-11.558m0-5.937c-3.988 0-7.676 1.307-10.691 3.783V.042h-6.351v44.06h5.666L72.621 41c3.028 2.43 6.702 3.712 10.642 3.712 9.676 0 17.257-7.685 17.257-17.497 0-9.644-7.798-17.494-17.386-17.494M120.719 15.658c4.869 0 9.192 3.414 10.578 8.326h-21.166c1.086-4.684 5.699-8.326 10.588-8.326m0-5.937c-4.654 0-9.018 1.803-12.29 5.076-3.288 3.289-5.098 7.7-5.098 12.42 0 9.649 7.8 17.497 17.388 17.497 6.703 0 13.013-3.947 15.514-9.761l.103-.212h-7.415l-.045.05c-2.066 2.45-5.039 3.857-8.157 3.857-5.266 0-9.844-3.74-10.726-8.728h27.69l.012-.136c.48-5.78-1.148-11.01-4.582-14.726-3.136-3.391-7.652-5.337-12.394-5.337M179.25 31.68l-9.592-21.616h-6.944l13.012 29.322-6.384 13.956-.099.215h6.98l19.796-43.281.098-.212h-6.98z"/></g></g></svg>